<?xml version="1.0" encoding="UTF-8" standalone="no"?>
<svg
   xmlns:dc="http://purl.org/dc/elements/1.1/"
   xmlns:cc="http://creativecommons.org/ns#"
   xmlns:rdf="http://www.w3.org/1999/02/22-rdf-syntax-ns#"
   xmlns:svg="http://www.w3.org/2000/svg"
   xmlns="http://www.w3.org/2000/svg"
   xmlns:sodipodi="http://sodipodi.sourceforge.net/DTD/sodipodi-0.dtd"
   xmlns:inkscape="http://www.inkscape.org/namespaces/inkscape"
   viewBox="0 0 64 64"
   version="1.1"
   id="svg4"
   sodipodi:docname="dogprofile.svg"
   inkscape:version="1.0.2-2 (e86c870879, 2021-01-15)">
  <metadata
     id="metadata10">
    <rdf:RDF>
      <cc:Work
         rdf:about="">
        <dc:format>image/svg+xml</dc:format>
        <dc:type
           rdf:resource="http://purl.org/dc/dcmitype/StillImage" />
        <dc:title />
      </cc:Work>
    </rdf:RDF>
  </metadata>
  <defs
     id="defs8" />
  <sodipodi:namedview
     pagecolor="#ffffff"
     bordercolor="#666666"
     borderopacity="1"
     objecttolerance="10"
     gridtolerance="10"
     guidetolerance="10"
     inkscape:pageopacity="0"
     inkscape:pageshadow="2"
     inkscape:window-width="1920"
     inkscape:window-height="1017"
     id="namedview6"
     showgrid="false"
     inkscape:zoom="13.28125"
     inkscape:cx="32"
     inkscape:cy="28.988235"
     inkscape:window-x="-8"
     inkscape:window-y="-8"
     inkscape:window-maximized="1"
     inkscape:current-layer="svg4"
     inkscape:document-rotation="0" />
  <path
     fill="#222"
     d="M57.637,44.364a1,1,0,0,0-1.169.8C54.954,53.131,49.7,57.3,45.3,57.3H41.417v0c.02-1.47.01-3.45-.09-5.82-.21-5.06-3.96-9.68-7.1-12.09-2.75-2.11-5.8-4.79-6.73-5.62H15.367l.36,20.4a1,1,0,0,1-.97,1.02,2.99,2.99,0,0,0-2.41,1.01,4.872,4.872,0,0,0-.77,3.1H41.25c.006,0,.011,0,.017,0H45.3c5.228,0,11.418-4.73,13.135-13.769A1,1,0,0,0,57.637,44.364Zm-26.78,11.4h-7.95c-.94,0-1.28,1.61-1.29,1.79a1.017,1.017,0,0,1-1,.97h-.03a.979.979,0,0,1-.97-.98c0-.83.79-3.78,3.29-3.78h4.43a7.274,7.274,0,0,1-1.6-2.34c-1.55-3.63.15-7.7.23-7.88a1,1,0,0,1,1.84.79c-.02.03-1.45,3.48-.23,6.31a5.985,5.985,0,0,0,3.63,3.18,1,1,0,0,1-.35,1.94ZM14.645,21.488H11.538c-2.328,0-5.495-2.969-5.989-6.134l9.264-1.583a1,1,0,0,0,.743-.574c.3-.666,1.363-2.477,2.663-2.947a1.144,1.144,0,0,0,.723-.84l.39-3.106A14.778,14.778,0,0,0,18.658,4.7L20.785,5.74a1,1,0,0,1,.524.633l.947,3.44a.994.994,0,0,0,1.114.723,2.311,2.311,0,0,1,1.63.575c1.008.864,1.547,2.641,1.557,5.14.025,5.853.215,12.916.29,15.516H15.378l.266-9.25a1,1,0,0,0-1-1.029Zm-.36,11.279a.682.682,0,1,1-.681.681A.682.682,0,0,1,14.285,32.767Z"
     data-name="Dog"
     id="path2"
     style="fill:#e7d7c1;fill-opacity:1" />
  <g
     data-name="Layer 2"
     id="g853"
     transform="matrix(0.71175957,0,0,0.71175957,34.260189,11.402453)"
     style="fill:#e7d7c1;fill-opacity:1">
    <circle
       cx="16"
       cy="6.96"
       r="6"
       id="circle849"
       style="fill:#e7d7c1;fill-opacity:1" />
    <path
       d="M 30.86,26.84 A 15.07,15.07 0 0 0 26.75,19.37 12.47,12.47 0 0 0 25.13,18 15,15 0 0 0 16,15 15.24,15.24 0 0 0 5.24,19.37 15.07,15.07 0 0 0 1.13,26.84 3.42,3.42 0 0 0 1.82,29.72 3.52,3.52 0 0 0 4.58,31 h 22.84 a 3.52,3.52 0 0 0 2.75,-1.32 3.42,3.42 0 0 0 0.69,-2.84 z"
       id="path851"
       style="fill:#e7d7c1;fill-opacity:1" />
  </g>
</svg>
