<?xml version="1.0" encoding="UTF-8" standalone="no"?>
<svg
   data-name="Layer 1"
   viewBox="0 0 24 24"
   version="1.1"
   id="svg6"
   sodipodi:docname="exit.svg"
   inkscape:version="1.1 (c68e22c387, 2021-05-23)"
   xmlns:inkscape="http://www.inkscape.org/namespaces/inkscape"
   xmlns:sodipodi="http://sodipodi.sourceforge.net/DTD/sodipodi-0.dtd"
   xmlns="http://www.w3.org/2000/svg"
   xmlns:svg="http://www.w3.org/2000/svg">
  <defs
     id="defs10" />
  <sodipodi:namedview
     id="namedview8"
     pagecolor="#ffffff"
     bordercolor="#666666"
     borderopacity="1.0"
     inkscape:pageshadow="2"
     inkscape:pageopacity="0.0"
     inkscape:pagecheckerboard="0"
     showgrid="false"
     inkscape:zoom="34.333333"
     inkscape:cx="11.985437"
     inkscape:cy="12.014563"
     inkscape:window-width="1920"
     inkscape:window-height="1009"
     inkscape:window-x="-8"
     inkscape:window-y="-8"
     inkscape:window-maximized="1"
     inkscape:current-layer="svg6" />
  <path
     d="M21,0H10A3.009,3.009,0,0,0,7,3V9h9a3,3,0,0,1,0,6H7v6a3.009,3.009,0,0,0,3,3H21a3.009,3.009,0,0,0,3-3V3A3.009,3.009,0,0,0,21,0Z"
     id="path2"
     style="fill:#e7d7c1;fill-opacity:1" />
  <path
     d="M3.41,13H16a1,1,0,0,0,0-2H3.41l1.3-1.29A1,1,0,0,0,3.29,8.29l-3,3a1.037,1.037,0,0,0,0,1.42l3,3a1.03,1.03,0,0,0,1.42,0,1.008,1.008,0,0,0,0-1.42Z"
     id="path4"
     style="fill:#e7d7c1;fill-opacity:1" />
</svg>
