<?xml version="1.0" encoding="UTF-8" standalone="no"?>
<svg
   xmlns:dc="http://purl.org/dc/elements/1.1/"
   xmlns:cc="http://creativecommons.org/ns#"
   xmlns:rdf="http://www.w3.org/1999/02/22-rdf-syntax-ns#"
   xmlns:svg="http://www.w3.org/2000/svg"
   xmlns="http://www.w3.org/2000/svg"
   viewBox="0 0 32 32"
   version="1.1"
   id="svg8">
  <metadata
     id="metadata14">
    <rdf:RDF>
      <cc:Work
         rdf:about="">
        <dc:format>image/svg+xml</dc:format>
        <dc:type
           rdf:resource="http://purl.org/dc/dcmitype/StillImage" />
        <dc:title></dc:title>
      </cc:Work>
    </rdf:RDF>
  </metadata>
  <defs
     id="defs12" />
  <g
     data-name="Layer 2"
     id="g6"
     style="fill:#ffffff">
    <circle
       cx="16"
       cy="6.96"
       r="6"
       id="circle2"
       style="fill:#ffffff" />
    <path
       d="M30.86,26.84a15.07,15.07,0,0,0-4.11-7.47A12.47,12.47,0,0,0,25.13,18,15,15,0,0,0,16,15,15.24,15.24,0,0,0,5.24,19.37a15.07,15.07,0,0,0-4.11,7.47,3.42,3.42,0,0,0,.69,2.88A3.52,3.52,0,0,0,4.58,31H27.42a3.52,3.52,0,0,0,2.75-1.32A3.42,3.42,0,0,0,30.86,26.84Z"
       id="path4"
       style="fill:#ffffff" />
  </g>
</svg>
