<?xml version="1.0" encoding="UTF-8" standalone="no"?>
<svg
   xmlns:dc="http://purl.org/dc/elements/1.1/"
   xmlns:cc="http://creativecommons.org/ns#"
   xmlns:rdf="http://www.w3.org/1999/02/22-rdf-syntax-ns#"
   xmlns:svg="http://www.w3.org/2000/svg"
   xmlns="http://www.w3.org/2000/svg"
   xmlns:sodipodi="http://sodipodi.sourceforge.net/DTD/sodipodi-0.dtd"
   xmlns:inkscape="http://www.inkscape.org/namespaces/inkscape"
   viewBox="0 0 60.879795 31.470421"
   version="1.1"
   id="svg4"
   sodipodi:docname="twodogs.svg"
   width="60.879795"
   height="31.470421"
   inkscape:version="1.0.2-2 (e86c870879, 2021-01-15)">
  <metadata
     id="metadata10">
    <rdf:RDF>
      <cc:Work
         rdf:about="">
        <dc:format>image/svg+xml</dc:format>
        <dc:type
           rdf:resource="http://purl.org/dc/dcmitype/StillImage" />
        <dc:title></dc:title>
      </cc:Work>
    </rdf:RDF>
  </metadata>
  <defs
     id="defs8" />
  <sodipodi:namedview
     pagecolor="#ffffff"
     bordercolor="#666666"
     borderopacity="1"
     objecttolerance="10"
     gridtolerance="10"
     guidetolerance="10"
     inkscape:pageopacity="0"
     inkscape:pageshadow="2"
     inkscape:window-width="1920"
     inkscape:window-height="1017"
     id="namedview6"
     showgrid="false"
     fit-margin-top="0"
     fit-margin-left="0"
     fit-margin-right="0"
     fit-margin-bottom="0"
     inkscape:zoom="6.640625"
     inkscape:cx="23.183387"
     inkscape:cy="26.500921"
     inkscape:window-x="-8"
     inkscape:window-y="-8"
     inkscape:window-maximized="1"
     inkscape:current-layer="svg4" />
  <g
     id="g857"
     transform="matrix(0.57566776,0,0,0.57566776,15.527809,-1.882095)">
    <path
       fill="#222222"
       d="m 77.966412,42.933412 a 1,1 0 0 0 -1.169,0.8 c -1.514,7.967 -6.768,12.136 -11.168,12.136 h -3.883 v 0 c 0.02,-1.47 0.01,-3.45 -0.09,-5.82 -0.21,-5.06 -3.96,-9.68 -7.1,-12.09 -2.75,-2.11 -5.8,-4.79 -6.73,-5.62 h -12.13 l 0.36,20.4 a 1,1 0 0 1 -0.97,1.02 2.99,2.99 0 0 0 -2.41,1.01 4.872,4.872 0 0 0 -0.77,3.1 h 29.673 c 0.006,0 0.011,0 0.017,0 h 4.033 c 5.228,0 11.418,-4.73 13.135,-13.769 a 1,1 0 0 0 -0.798,-1.167 z m -26.78,11.4 h -7.95 c -0.94,0 -1.28,1.61 -1.29,1.79 a 1.017,1.017 0 0 1 -1,0.97 h -0.03 a 0.979,0.979 0 0 1 -0.97,-0.98 c 0,-0.83 0.79,-3.78 3.29,-3.78 h 4.43 a 7.274,7.274 0 0 1 -1.6,-2.34 c -1.55,-3.63 0.15,-7.7 0.23,-7.88 a 1.0012118,1.0012118 0 0 1 1.84,0.79 c -0.02,0.03 -1.45,3.48 -0.23,6.31 a 5.985,5.985 0 0 0 3.63,3.18 1,1 0 0 1 -0.35,1.94 z m -16.212,-34.276 h -3.107 c -2.328,0 -5.495,-2.969 -5.989,-6.134 l 9.264,-1.583 a 1,1 0 0 0 0.743,-0.574 c 0.3,-0.666 1.363,-2.4770002 2.663,-2.9470002 a 1.144,1.144 0 0 0 0.723,-0.84 l 0.39,-3.106 a 14.778,14.778 0 0 0 -0.674,-1.604 l 2.127,1.04 a 1,1 0 0 1 0.524,0.633 l 0.947,3.44 a 0.994,0.994 0 0 0 1.114,0.723 2.311,2.311 0 0 1 1.63,0.575 c 1.008,0.8640002 1.547,2.6410002 1.557,5.1400002 0.025,5.853 0.215,12.916 0.29,15.516 h -11.469 l 0.266,-9.25 a 1,1 0 0 0 -1,-1.029 z m -0.36,11.279 a 0.682,0.682 0 1 1 -0.681,0.681 0.682,0.682 0 0 1 0.681,-0.681 z"
       data-name="Dog"
       id="path2" />
    <path
       fill="#222222"
       d="m -26.160107,43.022083 a 1,1 0 0 1 1.17036,0.798008 c 1.527565,7.96441 6.788657,12.124456 11.188651,12.116963 l 3.882995,-0.0066 v 0 c -0.0225,-1.469964 -0.01587,-3.449978 0.08009,-5.820145 0.201384,-5.06035 3.94351,-9.68673 7.079401,-12.102073 2.746402,-2.114681 5.791834,-4.799871 6.72042,-5.631454 l 12.129978,-0.02067 -0.325258,20.400584 a 1,1 0 0 0 0.971736,1.018346 2.99,2.99 0 0 1 2.411716,1.005895 4.872,4.872 0 0 1 0.775278,3.098684 l -29.672956,0.05053 c -0.006,1.1e-5 -0.011,1.9e-5 -0.017,2.9e-5 l -4.032994,0.0069 c -5.227995,0.0089 -11.426041,-4.710547 -13.158432,-13.74661 a 1,1 0 0 1 0.796015,-1.168387 z M 0.639267,54.37646 8.589256,54.36292 c 0.939999,-0.0016 1.282739,1.607818 1.293046,1.7878 a 1.017,1.017 0 0 0 1.001651,0.968296 l 0.03,-5.1e-5 a 0.979,0.979 0 0 0 0.968329,-0.981649 c -0.0014,-0.829999 -0.796436,-3.778649 -3.296431,-3.774391 l -4.429995,0.0075 A 7.274,7.274 0 0 0 5.751869,50.027704 C 7.295686,46.395069 5.588752,42.32797 5.508467,42.148106 a 1.001212,1.001212 0 0 0 -1.838652,0.793132 c 0.02005,0.02996 1.455925,3.477526 0.240745,6.3096 a 5.985,5.985 0 0 1 -3.62458,3.186177 1,1 0 0 0 0.353304,1.9394 z m 16.153604,-34.303558 3.106995,-0.0053 c 2.327998,-0.004 5.489936,-2.978353 5.978546,-6.14419 L 16.61173,12.356203 A 1,1 0 0 1 15.867754,11.783469 C 15.56662,11.117981 14.500538,9.3087941 13.199739,8.8410091 A 1.144,1.144 0 0 1 12.47531,8.0022411 L 12.080021,4.8969104 A 14.778,14.778 0 0 1 12.751289,3.2917645 L 10.626063,4.3353856 A 1,1 0 0 0 10.103142,4.9692764 L 9.162001,8.4108791 A 0.994,0.994 0 0 1 8.049235,9.1357761 2.311,2.311 0 0 0 6.420217,9.7135501 C 5.413689,10.579266 4.877717,12.357181 4.871972,14.856194 4.856942,20.709229 4.678968,27.772542 4.608396,30.372666 L 16.077377,30.353136 15.79563,21.103602 A 1,1 0 0 1 16.793876,20.0729 Z m 0.379205,11.27837 a 0.682,0.682 0 1 0 0.682159,0.67984 0.682,0.682 0 0 0 -0.682159,-0.67984 z"
       data-name="Dog"
       id="path2-3" />
  </g>
</svg>
